<?xml version="1.0" standalone="no"?>
<!DOCTYPE svg PUBLIC "-//W3C//DTD SVG 20010904//EN"
 "http://www.w3.org/TR/2001/REC-SVG-20010904/DTD/svg10.dtd">
<svg version="1.0" xmlns="http://www.w3.org/2000/svg"
 width="1280.000000pt" height="677.000000pt" viewBox="0 0 1280.000000 677.000000"
 preserveAspectRatio="xMidYMid meet">

<g transform="translate(0.000000,677.000000) scale(0.100000,-0.100000)"
fill="#000000" stroke="none">
<path d="M5058 5025 c-132 -33 -257 -103 -359 -202 l-57 -55 80 -182 c44 -99
82 -187 85 -193 10 -26 30 -12 71 51 145 221 410 246 586 55 95 -102 132 -213
123 -364 -12 -189 -104 -349 -243 -420 -52 -26 -69 -30 -145 -30 l-85 0 79
-180 c43 -99 86 -198 94 -220 9 -22 19 -43 22 -47 12 -14 148 25 241 69 81 39
107 58 185 137 132 134 205 273 247 476 27 128 29 333 4 449 -69 324 -299 576
-595 652 -88 23 -247 24 -333 4z"/>
<path d="M1780 4121 l0 -881 200 0 200 0 0 310 0 310 119 0 c148 0 251 19 345
64 229 110 331 382 260 695 -20 88 -66 171 -129 230 -60 57 -124 92 -227 123
-68 20 -97 22 -420 26 l-348 3 0 -880z m640 519 c83 -47 123 -149 102 -264
-24 -126 -90 -176 -248 -184 l-93 -5 -3 238 c-2 130 -1 239 2 242 3 3 48 3
100 1 78 -3 103 -8 140 -28z"/>
<path d="M3150 4120 l0 -880 200 0 200 0 2 378 3 377 235 0 235 0 3 -377 2
-378 200 0 200 0 0 880 0 880 -200 0 -200 0 0 -335 0 -335 -240 0 -240 0 0
335 0 335 -200 0 -199 0 -1 -880z"/>
<path d="M6280 4120 l0 -880 175 0 175 0 0 595 c0 327 4 595 8 595 5 0 50 -93
99 -207 50 -115 166 -382 259 -595 l169 -388 247 0 248 0 0 880 0 880 -180 0
-180 0 -2 -592 -3 -593 -93 220 c-52 121 -144 337 -204 480 -61 143 -131 310
-157 370 l-47 110 -257 3 -257 2 0 -880z"/>
<path d="M8389 4917 c-131 -408 -407 -1258 -485 -1497 -30 -91 -54 -168 -54
-173 0 -4 90 -7 200 -7 180 0 200 2 208 18 5 9 32 95 62 190 l54 172 280 0
281 0 54 -179 c30 -99 57 -185 61 -191 4 -7 76 -10 222 -8 l215 3 -54 165
c-30 91 -112 341 -182 555 -71 215 -172 523 -225 685 -54 162 -102 307 -108
323 l-10 27 -247 0 -246 0 -26 -83z m294 -349 c8 -35 31 -125 51 -200 65 -247
106 -408 106 -413 0 -3 -83 -5 -185 -5 -134 0 -185 3 -185 12 0 6 7 34 15 62
17 54 106 373 146 518 13 49 27 88 31 88 3 0 13 -28 21 -62z"/>
<path d="M9670 4120 l0 -880 200 0 200 0 0 397 c0 244 4 393 9 388 5 -6 109
-181 230 -389 121 -209 224 -383 229 -388 5 -5 121 -7 259 -6 l250 3 -188 295
c-104 162 -202 318 -219 345 -17 28 -66 106 -110 174 l-79 123 22 34 c22 34
87 130 375 554 l153 225 -237 3 c-131 1 -241 -1 -245 -5 -7 -7 -112 -174 -358
-566 l-86 -137 -3 355 -2 355 -200 0 -200 0 0 -880z"/>
</g>
</svg>
